<?xml version="1.0" standalone="no"?>
<!DOCTYPE svg PUBLIC "-//W3C//DTD SVG 20010904//EN"
 "http://www.w3.org/TR/2001/REC-SVG-20010904/DTD/svg10.dtd">
<svg version="1.0" xmlns="http://www.w3.org/2000/svg"
 width="1543.000000pt" height="1543.000000pt" viewBox="0 0 1543.000000 1543.000000"
 preserveAspectRatio="xMidYMid meet">
<metadata>
Created by potrace 1.14, written by Peter Selinger 2001-2017
</metadata>
<g transform="translate(0.000000,1543.000000) scale(0.100000,-0.100000)"
fill="#000000" stroke="none">
<path d="M8897 15380 c-70 -18 -133 -58 -247 -159 -63 -56 -155 -135 -205
-177 -169 -143 -216 -195 -284 -316 -81 -144 -182 -287 -270 -382 -38 -41 -82
-93 -96 -115 -15 -22 -31 -39 -35 -36 -4 3 -27 37 -51 77 -130 218 -208 338
-262 402 -33 39 -80 103 -105 141 -54 83 -143 173 -208 211 -41 24 -59 28
-123 29 -96 0 -154 -27 -284 -135 -285 -236 -373 -358 -507 -695 -103 -260
-199 -399 -461 -670 -42 -44 -94 -100 -116 -124 l-39 -43 -26 38 c-40 62 -355
372 -443 437 -85 63 -257 151 -365 187 -101 33 -235 38 -340 11 -222 -57 -436
-202 -530 -361 -54 -90 -194 -360 -296 -570 -46 -96 -116 -236 -154 -310 -38
-76 -93 -205 -124 -295 -30 -88 -69 -200 -87 -250 -27 -76 -32 -105 -33 -185
-1 -52 2 -115 7 -140 l8 -45 -93 6 c-138 8 -215 2 -340 -26 -114 -27 -256 -83
-338 -135 -25 -16 -77 -40 -115 -53 -39 -14 -101 -36 -140 -50 -38 -14 -102
-35 -140 -46 -80 -23 -171 -75 -246 -140 -114 -98 -203 -289 -250 -535 -20
-104 -21 -132 -16 -471 7 -449 2 -427 150 -657 41 -64 83 -140 93 -168 32 -89
61 -116 268 -248 65 -42 76 -52 60 -58 -79 -27 -289 -112 -336 -135 -31 -16
-83 -50 -115 -77 -52 -44 -162 -119 -264 -180 -54 -32 -124 -112 -157 -178
-37 -74 -97 -258 -112 -345 -6 -37 -9 -110 -6 -170 3 -57 9 -252 15 -434 12
-435 24 -485 191 -812 89 -174 152 -245 285 -318 116 -64 461 -188 696 -250
l67 -17 -58 -59 c-32 -33 -88 -106 -123 -162 -144 -229 -158 -280 -132 -479
14 -113 16 -181 10 -458 -11 -554 -10 -563 66 -710 50 -98 191 -284 287 -383
135 -138 316 -250 444 -277 65 -13 189 -16 240 -5 49 10 174 64 248 106 36 20
85 40 109 43 l43 7 -66 -72 c-76 -82 -110 -128 -240 -326 -118 -178 -132 -215
-129 -353 1 -58 6 -127 13 -155 6 -27 15 -138 20 -245 9 -214 26 -313 70 -421
62 -153 141 -255 326 -421 225 -201 449 -362 584 -420 61 -26 191 -52 395 -78
215 -28 284 -24 440 24 66 21 221 57 345 81 304 60 363 83 477 186 33 31 343
196 348 186 10 -19 37 -128 44 -182 12 -84 40 -164 118 -345 72 -168 86 -191
225 -372 335 -436 412 -523 488 -550 25 -9 102 -36 171 -61 196 -71 320 -100
398 -94 119 10 254 38 371 77 63 21 135 44 160 50 188 49 453 258 583 460 164
254 235 387 283 530 16 47 30 86 30 88 1 2 30 -19 65 -45 70 -53 89 -65 294
-189 77 -47 182 -118 232 -157 293 -228 405 -296 554 -336 42 -11 107 -36 145
-54 105 -52 137 -60 233 -55 73 4 100 11 181 45 170 73 227 86 343 79 301 -19
306 -19 466 8 84 14 172 35 196 45 81 36 155 118 249 277 26 44 79 121 116
171 98 130 100 137 111 282 9 137 11 146 41 271 29 121 22 252 -21 379 -47
141 -121 275 -193 355 -58 64 -179 218 -175 223 1 1 38 -7 82 -18 112 -26 162
-24 342 16 205 46 333 86 466 146 60 27 156 63 215 80 120 35 190 68 306 144
238 157 329 230 499 404 92 94 121 131 153 195 38 78 39 83 42 200 3 99 -1
144 -22 246 -13 69 -32 167 -41 218 -18 107 -39 159 -120 298 -114 194 -224
337 -417 543 -60 62 -108 118 -108 122 0 5 28 9 63 9 34 0 78 5 97 10 19 6 80
14 135 20 152 15 304 70 480 175 165 98 206 138 264 257 33 69 49 90 83 113
120 77 131 100 139 300 4 88 14 198 24 244 35 171 12 236 -190 526 -69 99
-151 221 -182 270 -119 189 -258 353 -369 435 -62 46 -245 139 -414 210 -164
68 -263 112 -273 121 -5 3 27 48 70 99 121 144 158 195 201 278 73 140 78 170
112 572 6 69 15 206 20 305 5 99 15 212 21 251 20 123 10 199 -38 295 -50 101
-168 279 -295 443 -106 138 -427 465 -533 544 -66 48 -364 215 -463 258 -2 1
13 30 32 65 40 74 162 375 201 499 35 113 39 185 26 501 -13 314 -26 396 -97
630 -67 223 -82 259 -159 399 -35 63 -67 133 -71 155 -14 83 -76 161 -163 205
-67 33 -286 100 -431 131 -141 31 -323 32 -430 4 -76 -20 -324 -140 -409 -198
-25 -17 -84 -65 -131 -107 -47 -42 -113 -95 -145 -117 -71 -48 -165 -96 -172
-89 -3 3 2 51 12 107 19 118 22 256 6 317 -7 23 -54 124 -106 225 -51 100
-117 238 -145 307 -71 170 -91 208 -144 270 -29 34 -56 82 -75 132 -46 118
-86 172 -221 298 -68 63 -169 158 -225 211 -131 126 -154 145 -211 170 -54 24
-142 32 -197 19z m-281 -2364 c38 -13 130 -46 204 -74 180 -67 301 -97 505
-122 270 -34 321 -51 340 -117 29 -99 97 -147 201 -141 59 3 67 0 102 -27 168
-134 834 -791 1018 -1005 194 -226 272 -341 481 -715 70 -123 263 -512 348
-698 230 -508 433 -1071 544 -1513 86 -343 114 -721 115 -1559 0 -463 -3 -606
-17 -760 -23 -259 -24 -265 -56 -276 -53 -19 -75 -35 -102 -72 -55 -76 -45
-179 24 -248 30 -30 30 -32 18 -78 -71 -270 -267 -681 -549 -1151 -134 -225
-374 -583 -517 -775 -526 -703 -1155 -1178 -1878 -1419 -126 -42 -363 -106
-395 -106 -7 0 -35 18 -63 40 -27 21 -66 42 -85 46 -87 16 -167 -22 -209 -100
-12 -21 -30 -40 -45 -44 -43 -12 -539 -7 -655 6 -581 67 -1024 215 -1575 525
-551 310 -1133 675 -1425 896 -293 220 -570 492 -759 746 -43 56 -44 60 -39
116 10 107 -45 194 -139 220 -24 6 -48 13 -54 14 -15 4 -171 271 -290 495
-179 335 -299 613 -439 1016 -60 171 -75 227 -71 254 17 104 17 120 6 155 -7
21 -32 56 -55 79 -48 47 -66 99 -129 376 -138 612 -161 1128 -76 1711 60 410
213 820 490 1314 166 297 420 655 656 925 143 164 431 453 574 576 216 187
470 369 675 486 88 50 325 169 423 213 l63 28 27 -25 c41 -39 86 -58 137 -58
98 0 172 71 184 176 l6 55 94 40 c107 44 121 46 145 20 10 -11 40 -29 68 -41
78 -33 165 -30 336 13 226 58 311 100 511 252 62 47 121 90 132 95 27 15 351
14 477 0 151 -18 352 -9 422 18 95 38 169 118 204 225 7 22 9 22 92 -7z"/>
<path d="M9800 10011 c-47 -10 -110 -26 -140 -35 -33 -10 -117 -21 -210 -26
-139 -8 -168 -13 -280 -48 -69 -22 -154 -43 -190 -47 -103 -11 -184 -32 -283
-74 -51 -21 -141 -53 -200 -70 -188 -54 -300 -126 -393 -253 -20 -26 -76 -128
-125 -225 -109 -215 -126 -276 -139 -505 -7 -128 -14 -181 -35 -248 -20 -65
-26 -107 -26 -175 0 -49 -7 -121 -15 -160 -36 -165 -51 -602 -22 -662 15 -31
38 -33 128 -12 96 22 124 31 150 50 54 41 58 57 64 291 4 137 11 240 21 280 8
35 15 99 15 143 0 44 5 96 10 115 44 164 51 206 56 325 8 195 15 223 105 405
117 234 131 247 329 305 69 20 160 52 204 71 46 21 109 39 155 45 123 17 222
40 291 66 53 20 93 27 215 34 119 6 179 15 290 43 77 20 163 36 190 36 34 0
105 -19 227 -59 148 -50 192 -69 265 -118 136 -91 219 -179 281 -301 104 -201
148 -340 199 -632 20 -116 25 -176 24 -300 l-1 -155 -35 -70 c-51 -102 -50
-107 33 -104 39 2 75 -2 87 -9 19 -11 18 -14 -27 -57 l-46 -45 -36 15 c-20 9
-47 13 -60 9 -41 -10 -45 -89 -17 -345 4 -42 12 -82 16 -89 5 -9 28 -11 80 -8
62 4 85 12 166 54 93 49 94 50 97 89 2 22 -2 80 -8 129 l-12 89 45 86 c77 148
83 180 78 376 -3 127 -56 462 -106 672 -57 238 -210 552 -332 680 -57 60 -315
258 -381 292 -43 23 -346 121 -419 136 -93 19 -177 18 -283 -4z"/>
<path d="M6106 9515 c-21 -7 -62 -29 -90 -48 -47 -32 -58 -35 -141 -39 -70 -4
-106 -11 -165 -35 -75 -30 -78 -31 -305 -36 -268 -6 -352 -21 -475 -89 -134
-73 -144 -78 -175 -78 -82 0 -203 -63 -354 -185 -83 -67 -136 -123 -193 -205
-117 -170 -172 -293 -203 -455 -23 -124 -28 -342 -11 -457 8 -51 22 -139 30
-195 8 -55 25 -130 37 -165 12 -34 41 -148 64 -253 98 -430 114 -472 224 -578
138 -133 350 -199 571 -178 101 10 144 22 231 66 110 56 153 109 147 180 -3
37 -6 40 -42 47 -28 6 -49 20 -74 48 -38 45 -79 70 -115 70 -13 0 -50 -9 -83
-21 -82 -29 -199 -29 -284 0 -128 43 -136 57 -210 391 -23 102 -54 241 -70
310 -62 260 -84 529 -56 673 19 97 82 231 155 328 55 75 205 194 261 208 19 5
66 16 104 25 43 10 98 34 150 65 128 77 154 83 433 86 236 3 243 4 305 30 51
22 86 29 181 34 108 7 122 10 186 44 69 35 70 35 117 21 26 -8 82 -14 124 -14
70 0 81 -3 136 -36 102 -61 134 -101 237 -297 157 -297 163 -312 203 -512 32
-156 37 -200 38 -330 0 -82 -4 -220 -10 -305 -10 -153 -11 -157 -56 -255 -45
-100 -54 -129 -83 -260 -17 -74 -68 -176 -107 -211 -32 -30 -71 -48 -157 -74
-73 -23 -79 -23 -370 -14 -163 5 -399 9 -526 9 -225 0 -231 -1 -263 -23 -66
-48 -95 -159 -59 -229 9 -16 33 -45 53 -63 l38 -33 100 6 c97 5 151 2 501 -23
88 -7 241 -13 340 -13 l180 -1 124 37 c69 21 147 51 175 67 162 93 283 273
333 493 13 62 43 152 67 206 24 53 49 114 55 136 20 68 36 311 35 515 -1 167
-5 216 -28 340 -55 293 -66 327 -183 559 -59 118 -130 252 -158 300 -85 145
-202 249 -383 338 -65 33 -84 37 -185 44 -72 5 -132 15 -167 28 -64 24 -100
25 -154 6z"/>
<path d="M9270 8929 c-194 -49 -336 -116 -414 -194 -65 -64 -137 -172 -163
-245 -76 -206 -88 -254 -86 -340 1 -47 2 -155 2 -240 2 -231 29 -306 159 -441
68 -72 89 -87 197 -140 66 -33 154 -78 195 -100 56 -30 96 -44 151 -52 70 -10
81 -9 160 16 71 22 97 26 150 21 91 -9 148 10 374 122 139 70 213 100 275 115
183 42 282 121 340 269 38 100 53 209 48 348 -3 96 -6 112 -32 157 -16 28 -45
79 -65 115 -19 36 -64 95 -100 131 -120 122 -285 271 -330 297 -59 35 -155 68
-232 82 -36 6 -100 28 -144 50 -166 83 -255 88 -485 29z"/>
<path d="M5665 8736 c-52 -13 -172 -61 -191 -77 -6 -5 -46 -16 -90 -25 -100
-21 -160 -51 -232 -117 -41 -38 -78 -61 -134 -82 -148 -56 -233 -135 -280
-260 -29 -76 -32 -207 -6 -275 9 -25 20 -72 23 -105 3 -33 8 -73 11 -90 30
-146 240 -353 394 -390 36 -8 85 -22 110 -30 25 -8 63 -17 84 -21 26 -5 49
-18 68 -40 46 -53 120 -84 198 -84 37 0 91 -5 121 -11 42 -8 82 -7 178 5 170
21 242 55 332 155 35 40 82 81 103 92 62 33 132 105 176 183 23 39 52 88 64
110 32 53 39 117 21 201 -8 39 -15 94 -15 123 0 73 -37 148 -114 229 -33 36
-88 108 -121 161 -54 85 -74 108 -175 190 -138 113 -167 129 -284 153 -104 21
-169 23 -241 5z"/>
<path d="M7635 4972 c-58 -27 -91 -72 -119 -160 -27 -87 -82 -216 -132 -306
-18 -34 -51 -121 -73 -193 -21 -73 -51 -158 -65 -188 -25 -55 -84 -145 -95
-145 -16 1 -113 154 -136 215 -14 39 -77 165 -140 281 -91 166 -115 219 -115
250 0 62 -19 112 -57 155 -46 51 -98 67 -161 50 -92 -24 -145 -92 -158 -201
-10 -92 14 -161 145 -404 66 -122 133 -257 150 -302 21 -55 59 -119 117 -200
47 -65 101 -147 120 -181 77 -136 175 -176 291 -118 62 31 222 186 287 278 65
93 129 231 166 362 18 61 49 144 69 185 58 114 137 299 155 359 22 74 20 107
-8 168 -45 95 -151 137 -241 95z"/>
</g>
</svg>
